<svg xmlns="http://www.w3.org/2000/svg" width="960" height="654.477" viewBox="0 0 960 654.477"><g transform="translate(-545.961 -298)"><path d="M794.655,692.743H613.368c-.263,0-.476-.614-.476-1.372s.213-1.372.476-1.372H794.655c.263,0,.476.614.476,1.372S794.918,692.743,794.655,692.743Z" transform="translate(710.83 251.513)" fill="#e6e6e6"/><path d="M896.189,798.893s-12.939,10.9-19.748,10.215-19.749-.681-14.3,6.81,27.92,11.577,37.454,12.258,30.644,1.362,29.282-2.724-2.724-23.154-8.172-24.516S896.189,798.893,896.189,798.893Z" transform="translate(492.324 123.786)" fill="#090814"/><path d="M896.189,798.893s-12.939,10.9-19.748,10.215-19.749-.681-14.3,6.81,27.92,11.577,37.454,12.258,30.644,1.362,29.282-2.724-2.724-23.154-8.172-24.516S896.189,798.893,896.189,798.893Z" transform="translate(541.506 123.786)" fill="#090814"/><path d="M884.956,494.994l-.032,243.263c-.026,1.525,0,3.99,0,3.99s-4.464,1.52-5.983,1.382h-24.9a5.487,5.487,0,0,1-4.974-5.04l-10.28-155.41a1.372,1.372,0,0,0-2.738.054L833.6,733.708c-.112,2.948,3.5,8.538.554,8.539l-34.389-2.163c-2.9,0-1.372-1.8-1.549-4.7L783.447,493.622l87.792-21.948Z" transform="translate(582.116 188.021)" fill="#2f2e41"/><path d="M21.405,65.072a33.694,33.694,0,1,1,29.186-2.226l3.761,19.7L21.405,86.125Z" transform="translate(1369.701 403.443)" fill="#ed9da0"/><path d="M875.266,577H209.281a23.346,23.346,0,0,1-23.32-23.32V231.32A23.346,23.346,0,0,1,209.281,208H875.266a23.346,23.346,0,0,1,23.32,23.32V553.681A23.346,23.346,0,0,1,875.266,577ZM209.281,210.743A20.6,20.6,0,0,0,188.7,231.32V553.681a20.6,20.6,0,0,0,20.576,20.576H875.266a20.6,20.6,0,0,0,20.576-20.576V231.32a20.6,20.6,0,0,0-20.576-20.576Z" transform="translate(360 90)" fill="#3f3d56"/><circle cx="12.346" cy="12.346" r="12.346" transform="translate(661.531 353.556)" fill="#ccc"/><circle cx="12.346" cy="12.346" r="12.346" transform="translate(661.531 400.196)" fill="#ccc"/><circle cx="12.346" cy="12.346" r="12.346" transform="translate(661.531 446.835)" fill="#ccc"/><circle cx="12.346" cy="12.346" r="12.346" transform="translate(661.531 493.474)" fill="#ccc"/><circle cx="12.346" cy="12.346" r="12.346" transform="translate(869.351 586.754)" fill="#ccc"/><circle cx="12.346" cy="12.346" r="12.346" transform="translate(780.188 586.754)" fill="#ccc"/><circle cx="12.346" cy="12.346" r="12.346" transform="translate(1053.166 586.754)" fill="#ccc"/><circle cx="12.346" cy="12.346" r="12.346" transform="translate(959.887 586.754)" fill="#ccc"/><path d="M730.621,259.243H324.583a1.372,1.372,0,0,1,0-2.744H730.621a1.372,1.372,0,0,1,0,2.744Z" transform="translate(411.022 108.03)" fill="#ccc"/><path d="M730.621,293.243H324.583a1.372,1.372,0,0,1,0-2.743H730.621a1.372,1.372,0,0,1,0,2.743Z" transform="translate(411.022 120.669)" fill="#ccc"/><path d="M730.621,327.244H324.583a1.372,1.372,0,0,1,0-2.744H730.621a1.372,1.372,0,0,1,0,2.744Z" transform="translate(411.022 133.309)" fill="#ccc"/><path d="M730.621,361.243H324.583a1.372,1.372,0,0,1,0-2.743H730.621a1.372,1.372,0,0,1,0,2.743Z" transform="translate(411.022 145.949)" fill="#ccc"/><path d="M392.85,408.255H353.07a6.867,6.867,0,0,1-6.859-6.859V364.359a6.867,6.867,0,0,1,6.859-6.859H392.85a6.867,6.867,0,0,1,6.859,6.859V401.4a6.867,6.867,0,0,1-6.859,6.859Z" transform="translate(419.573 145.577)" fill="#48ccbc"/><path d="M457.85,420.894H418.07a6.867,6.867,0,0,1-6.859-6.859V330.359a6.867,6.867,0,0,1,6.859-6.859H457.85a6.867,6.867,0,0,1,6.859,6.859v83.677a6.867,6.867,0,0,1-6.859,6.859Z" transform="translate(443.737 132.937)" fill="#48ccbc"/><path d="M523.85,433.534H484.07a6.867,6.867,0,0,1-6.859-6.859V296.359a6.867,6.867,0,0,1,6.859-6.859H523.85a6.867,6.867,0,0,1,6.859,6.859V426.675a6.867,6.867,0,0,1-6.859,6.859Z" transform="translate(468.273 120.298)" fill="#48ccbc"/><path d="M591.85,445.8H552.07a6.867,6.867,0,0,1-6.859-6.859V263.359a6.867,6.867,0,0,1,6.859-6.859H591.85a6.867,6.867,0,0,1,6.859,6.859V438.943a6.867,6.867,0,0,1-6.859,6.859Z" transform="translate(493.552 108.03)" fill="#48ccbc"/><path d="M689.443,394.706a13,13,0,0,1-2.514-.252h0q-.227-.045-.454-.1L504.609,352.012c-1.975-.46-3.288-1.7-3.052-2.891a1.975,1.975,0,0,1,1.514-1.4,5.508,5.508,0,0,1,2.69-.06l183,38.217c4.12.86,6.981,3.389,6.512,5.756-.245,1.239-1.337,2.2-3.073,2.705A9.915,9.915,0,0,1,689.443,394.706Z" transform="translate(577.013 162.498)" fill="#3f3d56"/><path d="M704.568,410.657a13.794,13.794,0,0,0,19.924-7.1L773.5,404.58l-13.577-21.553-44.458,2.334a13.869,13.869,0,0,0-10.9,25.3Z" transform="translate(550.22 155.067)" fill="#ed9da0"/><path d="M718.28,412.267l-.255-15.022A6.206,6.206,0,0,1,723.6,391l88.068-8.5,73.375-24.058a17.583,17.583,0,1,1,10.471,33.572L814.3,416.056l-89.694,2.278a6.157,6.157,0,0,1-6.327-6.067Z" transform="translate(557.795 145.628)" fill="#3f3d56"/><path d="M782.38,553.563a6.131,6.131,0,0,1-1.872-4.341l-2.273-162.474a39.1,39.1,0,0,1,26.45-37.643c3.156-14.32,19.956-16.114,29.75-15.9a15.206,15.206,0,0,1,12.315,6.753l7.02,10.531,15.474,9.07a39.134,39.134,0,0,1,18.478,42.272l-2.382,10.836A249.029,249.029,0,0,0,887.669,528.8l4.794,18.278a6.172,6.172,0,0,1-6.445,7.72l-5.567-.429a6.164,6.164,0,0,1-5.669-5.539l-.921-9.214a.686.686,0,0,0-1.365,0l-.892,8.92a6.172,6.172,0,0,1-6.047,5.558l-78.781,1.212h-.1A6.134,6.134,0,0,1,782.38,553.563Z" transform="translate(580.177 136.539)" fill="#3f3d56"/><path d="M820.212,323.6c.121,4.17,3.016,6.582,6.57,8.766s4.291,4.241,8.361,5.155a3.6,3.6,0,0,0,5.291-3.152l7.151-15.31a89.886,89.886,0,0,0,2.874-13.856c.9-9.019-1.238-18.72-7.533-25.241s-17.211-8.837-24.755-3.813c-8.952-11.433-49.87,13.827-39.776,21.778,1.8,1.414,4.541-.375,6.82-.549s4.833.227,6.281,2c1.892,2.311,1.068,5.753,1.847,8.636a8.064,8.064,0,0,0,10.189,5.222,27.73,27.73,0,0,0,5.284-3.4c1.748-1.164,3.957-2.025,5.925-1.29,2.594.968,3.516,4.144,3.75,6.9a63.915,63.915,0,0,0,1.72,8.152Z" transform="translate(588.757 126.964)" fill="#2f2e41"/><path d="M630.544,173l-5.487,67.216L596.25,310.175l42.524-68.588Z" transform="translate(767.618 362.313)" opacity="0.2"/><path d="M783.431,518.041a13.794,13.794,0,0,0,.436-21.147l18.352-45.454-24.969,5.042-13.6,42.391a13.869,13.869,0,0,0,19.781,19.168Z" transform="translate(573.701 180.499)" fill="#ed9da0"/><path d="M781.261,537.285l-14.134-5.094a6.205,6.205,0,0,1-3.862-7.434l23.316-85.349,3.555-77.137a17.583,17.583,0,1,1,35.1,2.128l-6.351,84.463-29.709,84.662a6.156,6.156,0,0,1-7.918,3.761Z" transform="translate(574.535 141.208)" fill="#3f3d56"/><path d="M730.621,395.243H324.583a1.372,1.372,0,0,1,0-2.743H730.621a1.372,1.372,0,0,1,0,2.743Z" transform="translate(411.022 158.588)" fill="#3f3d56"/></g></svg>